<?xml version="1.0" standalone="no"?>
<!DOCTYPE svg PUBLIC "-//W3C//DTD SVG 20010904//EN"
 "http://www.w3.org/TR/2001/REC-SVG-20010904/DTD/svg10.dtd">
<svg version="1.0" xmlns="http://www.w3.org/2000/svg"
 width="464.000000pt" height="439.000000pt" viewBox="0 0 464.000000 439.000000"
 preserveAspectRatio="xMidYMid meet">

<g transform="translate(0.000000,439.000000) scale(0.100000,-0.100000)"
fill="#000000" stroke="none">
<path d="M2073 3834 c-7 -3 -13 -16 -13 -29 0 -42 -74 -51 -84 -10 -8 32 -43
33 -106 4 -25 -11 -67 -23 -95 -26 -72 -8 -88 -19 -82 -53 5 -25 2 -30 -30
-45 -29 -14 -37 -15 -44 -4 -5 8 -9 17 -9 22 0 4 -10 7 -22 7 -24 0 -59 -21
-96 -56 -13 -12 -39 -26 -60 -32 -49 -15 -86 -49 -77 -71 13 -31 10 -43 -17
-64 -27 -20 -28 -20 -42 -2 -20 28 -58 8 -90 -47 -14 -24 -48 -62 -76 -86 -53
-45 -60 -62 -35 -82 20 -17 19 -32 -6 -64 -20 -25 -23 -26 -39 -11 -16 14 -19
14 -38 -2 -11 -10 -27 -41 -35 -69 -9 -29 -29 -71 -46 -94 -36 -50 -41 -89
-11 -97 22 -6 26 -30 9 -66 -8 -18 -17 -22 -39 -19 -33 5 -43 -16 -42 -88 0
-25 -8 -71 -19 -103 -23 -69 -18 -97 17 -97 22 0 24 -4 24 -46 0 -35 -3 -45
-14 -41 -8 3 -22 0 -32 -8 -17 -12 -18 -17 -5 -72 8 -32 13 -81 12 -109 -1
-28 3 -63 9 -79 8 -22 15 -26 36 -22 28 5 44 -15 44 -56 0 -17 -7 -26 -21 -30
-19 -5 -21 -11 -16 -42 3 -20 17 -51 30 -68 13 -18 27 -49 31 -70 15 -78 39
-107 75 -87 14 7 22 5 33 -8 27 -31 30 -54 8 -69 -11 -8 -20 -19 -20 -25 0 -6
23 -34 50 -62 28 -28 64 -72 80 -99 22 -35 36 -47 54 -47 13 0 26 6 29 13 3 9
9 9 30 -2 32 -17 40 -36 25 -60 -18 -29 -3 -48 59 -80 32 -16 69 -41 83 -56
14 -15 37 -33 52 -41 25 -13 30 -12 48 6 24 24 38 25 66 6 15 -11 20 -23 16
-44 -3 -24 1 -31 25 -40 15 -6 46 -14 68 -18 22 -3 63 -17 92 -31 60 -29 87
-27 91 5 4 23 24 28 70 16 15 -4 21 -12 18 -23 -8 -25 9 -44 40 -44 16 0 54 1
84 1 30 0 80 0 110 -1 52 -2 55 0 59 23 4 30 17 40 52 40 20 0 28 -6 33 -25 8
-31 36 -33 99 -6 25 11 69 22 98 26 76 10 92 20 86 55 -5 21 -1 29 16 38 37
17 57 22 57 12 0 -5 7 -16 16 -24 18 -19 36 -12 99 39 22 18 56 38 76 44 63
20 94 62 67 89 -13 13 2 36 34 53 15 8 23 7 32 -6 19 -27 53 -10 86 42 16 25
53 67 82 94 47 42 52 49 40 66 -23 34 -24 43 -8 68 14 22 22 25 50 20 39 -8
49 2 69 71 8 29 29 71 46 94 36 50 41 89 11 97 -22 6 -26 30 -9 66 8 18 17 22
38 19 24 -3 30 1 38 25 6 15 9 46 8 68 -1 22 7 66 17 98 22 69 17 97 -18 97
-22 0 -24 4 -24 46 0 32 4 44 13 41 6 -2 20 0 30 5 21 11 22 51 3 104 -8 24
-12 60 -9 90 6 64 -9 98 -42 92 -17 -4 -26 1 -34 19 -17 38 -14 63 9 63 30 0
26 53 -9 104 -15 24 -31 60 -35 82 -11 55 -33 94 -56 94 -10 0 -22 -5 -25 -10
-9 -14 -23 -4 -41 32 -15 28 -14 31 5 45 12 8 21 19 21 25 0 6 -23 34 -50 62
-28 28 -64 72 -80 99 -29 45 -60 61 -75 37 -11 -17 -35 -11 -60 16 -22 24 -23
28 -9 39 28 20 12 49 -44 77 -30 15 -74 45 -98 68 -45 42 -90 53 -100 25 -8
-20 -48 -19 -65 1 -7 9 -12 29 -11 43 4 31 -22 47 -91 57 -23 3 -63 17 -90 31
-56 29 -91 28 -95 -4 -3 -18 -10 -23 -35 -23 -39 0 -59 12 -52 31 11 30 -11
42 -72 39 -78 -3 -80 -3 -143 4 -30 3 -61 3 -67 0z m72 -23 c-6 -5 -22 -13
-37 -16 -22 -6 -28 -4 -28 9 0 12 10 16 37 16 23 0 33 -4 28 -9z m195 -10 c0
-16 -13 -18 -48 -7 l-37 11 30 6 c32 6 55 1 55 -10z m-380 -10 c0 -17 -20 -23
-48 -16 -20 5 -23 8 -11 16 19 12 59 12 59 0z m324 -12 c45 -21 29 -29 -56
-29 -126 0 -166 17 -90 38 43 12 107 8 146 -9z m231 -4 l30 -13 -42 -1 c-32
-1 -43 3 -43 14 0 18 16 18 55 0z m-590 -25 c18 -7 16 -10 -17 -24 -48 -20
-132 -39 -155 -34 -13 3 -5 12 31 36 51 32 98 40 141 22z m-173 -20 c-39 -24
-42 -24 -42 -6 0 17 15 24 50 25 24 1 24 0 -8 -19z m347 4 c2 -2 -11 -4 -30
-4 -19 0 -52 -2 -74 -5 l-40 -5 35 14 c30 11 96 11 109 0z m321 -10 c24 -13
23 -14 -20 -7 -70 9 -93 20 -45 21 22 0 51 -6 65 -14z m206 -14 c24 -17 44
-34 44 -37 0 -3 -21 -3 -47 1 -53 7 -153 45 -153 58 0 4 25 8 56 8 45 0 63 -5
100 -30z m-397 14 l32 -7 -22 -23 c-28 -30 -40 -30 -68 0 -21 23 -22 25 -4 29
28 7 29 7 62 1z m466 -7 c28 -21 1 -31 -30 -11 -14 9 -25 18 -25 20 0 9 38 3
55 -9z m-548 -29 c18 -18 33 -35 33 -38 0 -4 -31 -27 -68 -52 l-68 -46 -75 31
c-41 17 -76 32 -77 33 -2 1 8 20 22 41 25 37 29 38 108 49 46 6 85 12 88 13 2
0 19 -13 37 -31z m246 10 c76 -11 78 -12 101 -54 l24 -42 -54 -21 c-101 -38
-112 -37 -181 19 l-63 50 33 30 c37 34 37 34 140 18z m-798 -37 c-10 -9 -75
-23 -75 -17 0 2 15 13 32 25 21 13 36 17 42 11 6 -6 6 -13 1 -19z m298 -1 c-9
-16 -23 -30 -30 -30 -17 0 -63 22 -63 30 0 10 52 28 83 29 l28 1 -18 -30z
m692 -5 l30 -13 -39 -16 c-21 -10 -39 -16 -40 -14 -20 27 -36 54 -36 60 0 10
41 1 85 -17z m-850 6 c-11 -10 -115 -53 -115 -47 0 14 60 42 120 55 2 1 0 -3
-5 -8z m76 -31 c44 -23 45 -20 -18 -101 l-44 -56 -52 4 c-125 9 -126 10 -103
72 11 30 23 39 87 67 41 18 78 32 82 33 4 1 26 -8 48 -19z m1050 0 c13 -10 19
-19 12 -20 -21 0 -63 19 -63 30 0 16 26 12 51 -10z m-536 -90 c2 -3 -25 -14
-61 -24 l-64 -18 -65 24 -65 24 67 46 67 46 59 -46 c32 -25 60 -49 62 -52z
m397 90 c13 -5 34 -18 48 -30 20 -16 21 -19 5 -13 -32 11 -101 53 -88 53 6 0
22 -4 35 -10z m-1132 -7 c0 -16 -145 -103 -171 -103 -23 0 65 85 100 97 43 14
71 16 71 6z m1129 -32 c74 -38 79 -42 89 -83 6 -23 10 -43 9 -44 -1 -1 -39 -5
-83 -9 l-82 -7 -51 68 c-27 38 -50 71 -51 74 0 4 64 33 88 39 1 1 38 -17 81
-38z m237 -58 c20 -24 34 -46 31 -49 -13 -13 -177 94 -177 116 0 4 25 0 55 -8
44 -12 63 -24 91 -59z m-1030 46 c27 -11 60 -25 73 -30 23 -9 22 -11 -32 -50
-54 -38 -58 -39 -118 -34 -34 2 -64 7 -66 9 -4 3 87 126 93 126 1 0 23 -9 50
-21z m-511 -19 c-26 -27 -45 -31 -45 -10 0 10 48 39 64 40 6 0 -3 -13 -19 -30z
m1163 -43 l43 -62 -65 -3 c-60 -3 -69 0 -121 34 -30 20 -53 40 -50 43 9 9 118
50 135 50 8 1 34 -27 58 -62z m-1010 9 c-10 -31 -15 -36 -32 -32 -12 3 -29 6
-40 6 -16 0 -16 2 -5 16 12 14 81 55 86 50 1 -1 -3 -19 -9 -40z m1443 5 c18
-15 21 -23 13 -31 -9 -9 -17 -4 -33 19 -25 35 -15 41 20 12z m-103 -44 c10
-12 8 -16 -10 -21 -46 -12 -55 -7 -66 34 l-10 39 37 -19 c21 -10 43 -25 49
-33z m-806 25 c26 -10 50 -20 53 -23 10 -11 -101 -31 -153 -27 l-53 3 48 32
c26 18 50 32 53 33 3 0 26 -8 52 -18z m302 -27 l50 -35 -60 1 c-32 0 -81 9
-109 18 l-50 18 50 16 c67 21 64 22 119 -18z m-1009 -20 c-22 -20 -49 -40 -59
-46 -17 -10 -17 -8 3 17 19 24 74 62 91 63 3 1 -13 -15 -35 -34z m147 6 c7 -7
-42 -135 -58 -151 -9 -9 -130 -39 -159 -40 -6 0 -9 21 -7 50 4 48 7 52 70 105
62 51 68 54 106 49 23 -4 44 -9 48 -13z m698 -6 c35 -13 35 -13 -34 -14 -66
-1 -81 10 -31 22 28 7 26 7 65 -8z m-960 -10 c0 -8 -14 -22 -31 -31 l-32 -16
22 31 c24 33 41 40 41 16z m449 -1 c2 -1 -16 -26 -40 -54 -43 -49 -62 -59
-147 -76 l-33 -7 22 54 c11 30 25 63 29 75 8 20 14 21 87 16 43 -2 80 -6 82
-8z m1330 -64 c24 -31 21 -30 -31 15 -32 27 -58 51 -58 53 0 12 67 -38 89 -68z
m-1179 56 c0 -19 -153 -86 -195 -86 -3 0 11 20 32 45 37 45 38 45 100 45 35 0
63 -2 63 -4z m1137 -58 c59 -60 62 -65 56 -103 -3 -22 -6 -41 -8 -43 -1 -2
-38 5 -81 15 l-78 18 -27 75 c-15 41 -28 78 -28 82 -1 9 26 15 69 17 31 1 44
-7 97 -61z m-1082 36 c-64 -18 -73 -17 -49 1 10 8 37 14 59 14 l40 -1 -50 -14z
m515 -31 c153 -46 145 -42 270 -128 91 -63 124 -94 197 -183 76 -92 95 -123
141 -231 47 -113 54 -137 68 -262 16 -135 16 -140 -6 -275 -20 -125 -27 -148
-81 -258 -50 -102 -73 -137 -151 -224 -82 -90 -108 -112 -213 -176 -109 -65
-135 -77 -255 -108 -130 -34 -140 -35 -270 -31 -123 4 -147 9 -265 45 -115 36
-143 49 -244 117 -97 65 -126 91 -203 185 -79 95 -98 125 -144 233 -48 114
-54 137 -69 263 -17 137 -17 141 5 271 20 117 29 146 81 257 52 108 71 138
152 228 89 99 154 148 322 241 11 7 76 27 145 46 122 35 128 35 265 30 122 -4
155 -10 255 -40z m404 -30 c14 -42 25 -77 23 -78 -1 -1 -30 7 -65 18 -54 16
-68 26 -102 70 l-39 52 42 6 c23 3 58 7 79 7 l36 2 26 -77z m-344 46 l25 -21
-29 7 c-16 3 -43 12 -60 20 l-31 13 35 1 c21 0 45 -8 60 -20z m170 -29 c23
-27 40 -50 37 -50 -32 0 -197 80 -197 96 0 2 27 4 59 4 59 0 59 0 101 -50z
m-1390 33 c0 -17 -56 -85 -96 -118 -49 -41 -54 -35 -23 28 23 48 119 121 119
90z m1872 -25 l23 -33 -35 22 c-38 24 -50 43 -27 43 9 0 26 -15 39 -32z m-2
-42 c32 -23 50 -46 62 -79 9 -26 14 -47 10 -47 -11 0 -84 78 -110 117 -38 54
-27 57 38 9z m-1860 -31 c0 -39 -12 -48 -56 -43 l-28 3 33 38 c18 20 37 37 42
37 5 0 9 -16 9 -35z m370 -4 c-25 -16 -47 -26 -50 -24 -10 9 51 53 73 53 17 0
13 -6 -23 -29z m-531 -15 c-12 -25 -39 -36 -39 -16 0 12 40 53 46 47 3 -2 -1
-16 -7 -31z m441 -21 c-37 -38 -130 -102 -130 -90 0 2 11 27 25 56 23 50 28
55 72 65 77 19 79 16 33 -31z m1144 35 c7 0 23 -14 35 -31 l24 -32 -30 18
c-45 26 -82 58 -60 51 10 -3 24 -6 31 -6z m446 -82 c0 -11 -23 -10 -54 2 -20
7 -26 17 -26 38 0 16 3 32 8 36 7 8 72 -60 72 -76z m-1722 -2 c-26 -54 -39
-68 -86 -95 -30 -17 -56 -30 -58 -28 -2 2 -1 38 2 80 l7 76 76 14 c42 8 79 15
83 16 4 1 -6 -28 -24 -63z m1412 44 c24 -6 47 -41 65 -99 l7 -23 -32 18 c-33
19 -97 82 -113 109 -9 16 -8 16 73 -5z m430 -42 c0 -19 -28 -6 -38 17 -18 38
-15 41 13 15 14 -13 25 -27 25 -32z m-2000 -10 c0 -18 -3 -56 -6 -84 l-6 -51
-78 -42 -78 -41 -12 49 -12 49 51 76 c51 76 52 76 96 76 44 0 45 -1 45 -32z
m1727 12 c39 -9 52 -16 57 -33 8 -29 8 -137 0 -137 -3 0 -30 15 -58 32 -45 28
-56 41 -74 88 -27 69 -27 73 1 66 12 -3 45 -10 74 -16z m-1883 -45 c-20 -30
-38 -55 -40 -55 -2 0 1 12 7 28 9 23 56 82 66 82 2 0 -13 -25 -33 -55z m2019
19 c33 -6 42 -14 82 -81 44 -72 45 -75 34 -118 -6 -25 -16 -45 -21 -45 -5 0
-41 18 -79 40 l-69 41 0 53 c0 30 -3 68 -6 85 -7 34 -5 35 59 25z m124 -83 c8
-18 12 -35 10 -37 -4 -4 -67 93 -67 103 0 15 44 -36 57 -66z m-1823 14 c-40
-49 -52 -53 -32 -11 9 22 47 53 66 56 2 0 -13 -20 -34 -45z m-404 27 c0 -5
-11 -19 -25 -32 -26 -24 -33 -14 -15 21 11 19 40 27 40 11z m1911 -79 c14 -37
12 -37 -19 -1 -57 68 -60 74 -24 49 18 -13 38 -34 43 -48z m-1912 -4 c-21 -56
-67 -139 -76 -139 -3 0 -3 26 1 57 6 48 13 64 43 95 21 21 41 38 45 38 4 0 -1
-23 -13 -51z m327 -6 c-14 -26 -41 -66 -61 -88 l-35 -40 6 50 c9 75 10 78 61
106 27 14 49 24 51 23 2 -1 -8 -24 -22 -51z m1994 28 c5 -11 10 -27 10 -36 0
-12 -7 -8 -24 12 -23 27 -25 43 -6 43 5 0 14 -9 20 -19z m-293 -83 c7 -13 13
-43 13 -68 l0 -44 -31 34 c-25 29 -79 128 -79 146 0 13 86 -47 97 -68z m302
-2 c22 -38 37 -130 19 -124 -18 6 -68 108 -75 153 l-6 40 22 -19 c12 -11 30
-33 40 -50z m-2280 -2 c1 -14 -10 -26 -34 -37 -19 -9 -35 -14 -35 -12 0 11 31
79 42 93 10 12 13 11 19 -5 4 -10 8 -27 8 -39z m167 -26 c-7 -57 -11 -67 -54
-110 -31 -32 -48 -44 -53 -35 -8 15 -32 138 -27 142 8 7 124 64 132 65 5 0 5
-28 2 -62z m2060 -23 c9 -25 14 -48 11 -51 -3 -3 -19 2 -37 11 -21 11 -30 21
-26 32 3 8 9 26 12 39 8 32 19 23 40 -31z m-2385 -18 c-19 -19 -24 1 -10 35
l14 33 3 -29 c2 -16 -1 -33 -7 -39z m2236 26 c34 -20 63 -43 63 -51 0 -7 -8
-43 -17 -79 l-16 -67 -48 52 c-45 49 -47 55 -51 117 -1 36 -1 65 1 65 2 0 33
-17 68 -37z m-2063 -20 c3 -10 10 -46 17 -81 l12 -63 -59 -60 c-32 -32 -62
-58 -67 -56 -5 1 -18 19 -30 40 l-21 37 27 84 c26 78 30 85 65 100 48 19 50
19 56 -1z m2335 -72 c-15 -5 -19 3 -25 45 l-4 39 19 -40 c12 -23 16 -41 10
-44z m-2152 23 c-18 -39 -23 -43 -25 -24 -3 18 30 70 45 70 1 0 -7 -21 -20
-46z m1803 -68 c0 -37 -4 -33 -29 34 l-21 55 25 -30 c14 -17 25 -43 25 -59z
m207 67 c21 -10 40 -19 42 -20 2 -2 14 -41 26 -87 l23 -84 -27 -41 -27 -40
-62 62 -61 62 21 83 c11 45 22 82 24 82 2 0 20 -8 41 -17z m-2336 -54 c-16
-43 -20 -48 -20 -26 -1 27 26 93 35 85 2 -3 -5 -29 -15 -59z m273 -16 c-4 -27
-19 -73 -34 -103 l-28 -55 -7 50 c-4 28 -8 55 -10 60 -2 9 73 95 83 95 2 0 0
-21 -4 -47z m2169 -63 l6 -45 -13 40 c-7 22 -16 54 -19 70 l-7 30 14 -25 c7
-14 16 -45 19 -70z m-213 -27 c0 -7 -5 -36 -12 -65 l-11 -53 -23 51 c-12 28
-25 77 -29 110 l-8 59 41 -45 c23 -25 41 -50 42 -57z m-2300 72 c0 -12 -32
-67 -36 -63 -9 10 9 68 22 68 8 0 14 -2 14 -5z m25 -82 c-8 -73 -25 -142 -35
-148 -5 -3 -12 20 -16 51 -5 47 -3 64 16 105 31 66 44 63 35 -8z m234 -28 c8
-56 7 -64 -20 -118 -17 -32 -33 -56 -37 -53 -4 2 -22 33 -41 68 l-34 63 59 57
c32 31 60 54 61 50 1 -4 7 -34 12 -67z m2338 9 l2 -39 -14 30 c-18 38 -19 58
-2 53 6 -3 13 -22 14 -44z m-2512 -10 c16 -25 16 -27 -6 -50 -12 -13 -26 -24
-31 -24 -9 0 -10 45 -2 78 8 29 18 28 39 -4z m2308 -158 c-21 -36 -41 -66 -44
-66 -4 0 -18 27 -33 59 -24 54 -25 63 -15 112 5 30 12 59 14 66 2 7 29 -14 60
-47 l57 -59 -39 -65z m179 138 c16 -37 19 -57 13 -100 -3 -30 -10 -56 -15 -59
-12 -8 -30 77 -30 144 0 34 3 61 6 61 3 0 14 -21 26 -46z m-2258 -31 c-8 -57
-24 -81 -24 -35 0 28 18 82 27 82 2 0 1 -21 -3 -47z m2205 -58 l1 -40 -31 32
-32 31 24 33 23 33 7 -24 c4 -14 7 -43 8 -65z m-2366 -21 l38 -75 -42 -74 -43
-74 -38 32 -38 32 4 90 c5 87 6 91 38 117 18 15 35 28 38 28 3 0 22 -34 43
-76z m2112 -11 c-8 -45 -11 -41 -19 32 -6 59 -6 60 10 31 11 -19 14 -39 9 -63z
m-2305 36 c0 -20 -5 -29 -16 -29 -12 0 -15 6 -10 23 3 12 6 28 6 35 0 7 5 10
10 7 6 -3 10 -19 10 -36z m322 -51 c3 -29 0 -77 -5 -107 l-10 -54 -23 44 c-13
24 -23 52 -24 61 0 21 41 108 51 108 4 0 9 -24 11 -52z m2238 -97 l0 -83 -37
-34 c-20 -19 -40 -34 -43 -34 -3 0 -23 34 -43 76 l-38 76 43 73 42 73 38 -32
38 -31 0 -84z m100 89 c0 -28 -14 -48 -23 -33 -8 14 5 73 14 67 5 -3 9 -18 9
-34z m-2609 -50 l-9 -45 -1 47 c-1 51 12 100 17 63 1 -11 -2 -40 -7 -65z
m2300 -90 c-24 -43 -30 -49 -35 -33 -10 30 -10 103 -1 153 l7 44 29 -56 28
-56 -28 -52z m241 51 c0 -23 -2 -45 -6 -48 -3 -4 -6 18 -6 47 0 29 3 51 6 48
3 -3 5 -25 6 -47z m-2319 -39 c25 -55 26 -63 16 -120 -6 -34 -14 -62 -18 -62
-4 0 -30 24 -59 53 l-53 53 38 67 c21 37 41 67 44 67 4 0 18 -26 32 -58z
m-281 -13 l-9 -34 -8 27 c-9 34 1 66 16 51 7 -7 7 -22 1 -44z m43 11 c10 -16
21 -181 13 -186 -5 -3 -17 16 -29 42 -16 38 -19 59 -13 101 6 50 16 65 29 43z
m314 -90 c-1 -24 -1 -24 -14 5 -7 17 -10 45 -7 65 l6 35 7 -40 c4 -22 8 -51 8
-65z m2081 26 l35 -66 -60 -54 -60 -54 -11 67 c-10 64 -10 68 20 123 17 31 33
55 36 53 3 -2 21 -33 40 -69z m-2320 9 c22 -23 22 -25 6 -50 -22 -33 -32 -32
-40 6 -14 73 -5 85 34 44z m2550 13 c0 -7 -3 -24 -7 -36 -4 -18 -8 -20 -14
-10 -14 22 -10 58 6 58 8 0 15 -6 15 -12z m-375 -95 l-16 -28 6 33 c3 17 8 47
12 65 l8 32 3 -37 c2 -21 -4 -49 -13 -65z m329 65 c11 -44 6 -99 -14 -138 -41
-80 -48 -33 -18 108 12 56 22 65 32 30z m-59 -25 c-2 -10 -7 -35 -10 -55 -7
-46 -19 -48 -40 -9 -14 29 -14 30 16 55 36 31 38 31 34 9z m-2305 -197 c-11
-44 -22 -81 -24 -83 -2 -3 -22 5 -45 16 -36 19 -42 28 -56 79 -9 31 -20 68
-24 82 -6 18 -1 35 18 67 l26 42 62 -62 63 -62 -20 -79z m116 47 l7 -56 -42
46 -42 46 12 63 13 63 23 -53 c12 -29 26 -78 29 -109z m1957 26 c5 -33 1 -40
-39 -80 l-45 -44 7 45 c3 25 18 72 32 104 28 64 31 63 45 -25z m-2308 42 c15
-30 7 -49 -15 -36 -10 6 -15 65 -5 65 2 0 11 -13 20 -29z m2488 -14 l21 -37
-27 -84 c-26 -78 -30 -84 -67 -101 -22 -10 -42 -16 -45 -13 -3 2 -12 39 -21
82 l-16 78 58 59 c32 33 62 58 67 56 5 -1 18 -19 30 -40z m123 -52 c-4 -21
-13 -35 -21 -35 -19 0 -19 2 2 45 20 42 28 38 19 -10z m-2517 -70 c0 -5 -6 1
-14 15 -8 14 -14 41 -14 60 1 33 1 33 15 -15 7 -27 14 -54 13 -60z m273 -87
c3 -35 4 -65 2 -66 -7 -9 -134 71 -134 84 0 8 8 45 17 81 l16 67 47 -51 c44
-48 48 -56 52 -115z m2137 51 c-11 -19 -18 -26 -15 -15 4 10 12 39 19 65 11
44 12 44 15 15 2 -20 -5 -45 -19 -65z m-2095 16 l26 -60 -30 35 c-18 21 -30
47 -30 64 0 37 2 34 34 -39z m1925 -38 c8 -37 12 -69 10 -71 -2 -2 -35 -19
-73 -39 l-69 -36 7 46 c3 25 6 54 6 65 0 22 90 122 100 111 4 -4 12 -39 19
-76z m-127 34 c-3 -25 -42 -77 -42 -57 0 8 39 86 43 86 2 0 2 -13 -1 -29z
m-2158 -23 c11 -42 7 -55 -9 -34 -16 22 -20 56 -6 56 5 0 11 -10 15 -22z m55
-22 c29 -46 62 -144 51 -151 -16 -10 -80 86 -80 121 0 18 -3 39 -6 48 -11 29
14 16 35 -18z m99 -22 c2 -1 -1 -19 -8 -39 l-12 -37 -17 29 c-10 15 -21 41
-25 56 l-7 28 33 -17 c18 -9 35 -18 36 -20z m268 -83 c14 -29 23 -55 21 -57
-6 -7 -92 56 -99 73 -3 10 -7 38 -7 63 l0 45 30 -35 c17 -19 41 -59 55 -89z
m2084 72 c0 -10 -7 -27 -15 -37 -15 -19 -15 -19 -15 1 0 28 10 53 21 53 5 0 9
-8 9 -17z m-366 -57 c-7 -55 -7 -56 -60 -85 -30 -16 -54 -27 -54 -25 0 25 107
181 117 171 2 -2 1 -30 -3 -61z m314 13 c-7 -36 -21 -65 -46 -95 -20 -24 -38
-41 -40 -39 -16 16 63 185 86 185 5 0 5 -22 0 -51z m-2198 1 l67 -39 7 -82 c4
-45 5 -84 2 -86 -2 -3 -25 -1 -50 2 -44 7 -47 9 -91 85 -25 42 -43 84 -40 91
19 56 25 69 32 69 4 0 37 -18 73 -40z m2125 -7 c-9 -20 -21 -43 -28 -51 -10
-12 -13 -11 -18 9 -12 42 -9 56 14 67 42 20 49 15 32 -25z m-64 -45 c12 -48 6
-65 -56 -149 -31 -43 -38 -47 -81 -51 l-46 -3 7 85 c3 46 7 85 8 86 8 6 144
73 149 74 4 0 12 -19 19 -42z m-2234 -60 c-16 -9 -24 1 -32 37 l-7 30 25 -30
c17 -21 21 -32 14 -37z m435 -12 l21 -29 -27 18 c-25 16 -56 63 -56 82 0 8 21
-16 62 -71z m-106 30 c41 -28 56 -45 74 -91 12 -30 20 -58 18 -61 -3 -3 -37 2
-75 11 l-70 16 -7 52 c-8 70 -8 107 2 107 4 0 30 -15 58 -34z m-237 -37 c34
-56 36 -72 4 -36 -17 19 -48 87 -39 87 2 0 17 -23 35 -51z m1829 7 c-6 -15
-25 -34 -42 -43 -29 -15 -29 -14 10 30 21 25 40 44 42 42 1 -1 -3 -15 -10 -29z
m118 -28 c-3 -29 -6 -65 -6 -79 0 -24 -5 -27 -77 -42 -42 -9 -78 -15 -80 -13
-8 8 56 136 69 137 7 0 29 11 48 24 19 13 39 24 44 24 5 1 6 -23 2 -51z m302
22 c-11 -34 -23 -44 -39 -34 -7 4 0 17 17 35 15 16 29 29 30 29 2 0 -2 -14 -8
-30z m-101 -37 c-8 -15 -28 -39 -43 -53 -23 -21 -22 -16 12 32 41 59 56 70 31
21z m-1752 -30 c23 -15 77 -84 71 -90 -6 -7 -90 19 -102 31 -6 6 -16 25 -22
41 -5 17 -14 39 -18 50 -8 20 -8 20 21 1 17 -11 39 -25 50 -33z m1381 -45
c-24 -54 -26 -55 -78 -66 -29 -5 -54 -9 -55 -8 -1 1 10 17 24 35 23 29 123
103 131 96 1 -1 -9 -27 -22 -57z m-1655 -80 c18 -27 29 -51 26 -54 -3 -4 -26
8 -51 26 -30 22 -51 48 -65 81 -12 26 -21 50 -21 54 0 16 84 -64 111 -107z
m-115 62 l15 -34 -26 24 c-14 13 -25 30 -25 38 0 24 21 8 36 -28z m137 30 c13
0 17 -9 17 -40 0 -22 -4 -40 -9 -40 -10 0 -71 73 -71 85 0 4 10 5 23 1 12 -3
30 -6 40 -6z m156 -34 l46 -12 28 -79 c31 -88 28 -95 -35 -95 -31 0 -46 9 -97
56 -59 54 -61 58 -61 106 l0 49 36 -7 c20 -4 57 -12 83 -18z m252 -38 l24 -19
-25 6 c-14 4 -38 21 -55 37 l-30 31 31 -18 c17 -9 41 -26 55 -37z m1470 15
c-14 -26 -60 -67 -67 -60 -4 3 -3 22 0 42 6 32 10 35 42 35 30 0 33 -2 25 -17z
m79 12 c0 -3 -11 -27 -24 -53 -16 -32 -37 -54 -66 -71 -49 -27 -60 -22 -35 16
33 51 125 131 125 108z m50 -8 c0 -8 -11 -24 -25 -37 -28 -27 -29 -25 -14 19
11 30 39 44 39 18z m-534 -26 c-24 -25 -74 -46 -84 -36 -3 3 99 64 107 65 3 0
-8 -13 -23 -29z m320 -2 c-3 -17 -6 -40 -6 -50 0 -11 -28 -42 -67 -74 -58 -48
-72 -55 -98 -50 -68 14 -66 9 -34 88 17 39 33 75 37 79 7 7 124 34 161 37 10
1 12 -7 7 -30z m-1488 4 c45 -14 63 -27 95 -68 39 -49 39 -49 16 -56 -13 -3
-49 -7 -81 -8 l-56 -1 -25 75 c-16 45 -21 75 -15 75 6 0 36 -8 66 -17z m1292
-16 c0 -9 -53 -133 -59 -140 -4 -4 -42 -4 -84 -1 -85 8 -84 6 -26 72 27 32 48
45 90 56 55 15 79 19 79 13z m-1095 -47 c22 -11 51 -29 65 -40 l25 -20 -65 1
-65 0 -34 46 -34 46 34 -7 c18 -3 52 -15 74 -26z m-370 -82 c6 -5 -6 -2 -25 7
-19 9 -46 33 -59 53 l-24 37 49 -44 c27 -24 54 -48 59 -53z m1263 50 c-34 -41
-38 -43 -97 -46 -33 -2 -61 1 -61 6 0 18 133 79 179 81 8 1 -1 -17 -21 -41z
m-1418 12 c25 -19 23 -37 -4 -27 -16 6 -41 47 -29 47 4 0 19 -9 33 -20z m680
-26 l35 -13 -33 0 c-20 -1 -45 8 -60 20 l-27 21 25 -7 c14 -4 41 -14 60 -21z
m570 -4 c-16 -12 -40 -19 -65 -19 -40 1 -40 1 20 19 33 10 62 18 65 19 3 0 -6
-8 -20 -19z m544 -16 c-15 -22 -62 -54 -80 -54 -3 0 16 18 42 40 27 22 50 40
52 40 1 0 -5 -11 -14 -26z m110 14 c-13 -23 -37 -48 -46 -48 -18 0 -6 26 20
42 34 20 35 21 26 6z m-1374 -95 c27 -38 50 -70 50 -73 0 -3 -20 -13 -44 -23
l-44 -18 -80 40 c-64 32 -81 45 -86 68 -4 15 -9 36 -12 45 -4 14 4 18 53 21
32 2 70 4 86 5 23 2 35 -8 77 -65z m170 27 c51 -38 52 -40 29 -48 -90 -33
-129 -45 -132 -41 -13 17 -75 106 -81 117 -5 9 9 12 62 12 64 0 72 -2 122 -40z
m144 24 c53 -18 51 -25 -10 -42 -56 -16 -52 -17 -108 23 l-50 35 60 0 c33 0
82 -7 108 -16z m141 7 c-19 -17 -60 -19 -90 -6 -29 13 -28 13 35 14 37 1 60
-3 55 -8z m-686 -38 c6 -20 9 -38 7 -40 -1 -2 -25 12 -52 29 l-49 33 30 6 c51
11 54 10 64 -28z m881 33 c0 -2 -22 -18 -49 -35 l-49 -32 -58 22 -59 22 40 13
c37 11 175 19 175 10z m133 -2 l45 -6 -45 -57 c-25 -31 -48 -59 -52 -64 -9 -9
-142 44 -142 56 0 14 104 76 127 77 12 0 42 -3 67 -6z m205 -20 c30 -5 33 -8
28 -29 -16 -63 -23 -70 -104 -103 l-80 -34 -41 22 c-47 23 -47 20 16 101 l44
56 52 -4 c29 -2 67 -6 85 -9z m-1321 -16 c49 -28 123 -87 123 -98 0 -20 -106
22 -133 53 -59 69 -56 83 10 45z m1452 -5 c6 -5 -37 -35 -70 -50 -27 -11 -27
-11 -19 18 13 44 19 49 53 42 18 -3 34 -8 36 -10z m-1497 -25 l23 -33 -35 22
c-38 24 -50 43 -27 43 9 0 26 -15 39 -32z m847 11 c34 -12 61 -23 59 -24 -2
-2 -31 -24 -66 -49 l-63 -47 -59 47 c-33 26 -60 50 -60 54 0 7 90 37 116 39 5
1 38 -8 73 -20z m689 -41 c-27 -33 -49 -47 -89 -59 -30 -9 -56 -15 -59 -12
-13 13 134 111 169 113 8 0 -1 -17 -21 -42z m72 12 c0 -9 -52 -40 -66 -40 -4
0 5 13 21 30 26 27 45 31 45 10z m-924 -41 c79 -61 80 -62 38 -94 l-36 -28
-87 13 -88 12 -26 43 -25 43 26 10 c15 6 45 17 67 26 59 22 73 20 131 -25z
m377 -11 c33 -12 33 -14 3 -59 -23 -34 -28 -36 -112 -48 l-87 -12 -36 35 -36
36 25 17 c13 10 45 32 70 49 l45 32 50 -20 c28 -11 62 -25 78 -30z m-753 -35
c3 -3 -11 -2 -30 2 -19 4 -44 16 -55 26 -19 19 -17 18 30 -2 28 -12 52 -24 55
-26z m-147 10 c4 -2 7 -8 7 -14 0 -16 -27 -10 -51 11 l-24 20 30 -6 c17 -4 33
-9 38 -11z m305 -19 l23 -36 -32 7 c-18 4 -46 13 -63 20 l-31 14 35 15 c46 20
42 21 68 -20z m892 31 c0 -11 -66 -45 -85 -44 -12 0 -1 10 30 24 58 28 55 26
55 20z m-201 -34 l24 -18 -33 -12 c-18 -6 -44 -11 -57 -11 l-24 0 21 30 c25
35 36 37 69 11z m281 -11 c-26 -20 -50 -23 -53 -5 -1 5 12 13 28 16 49 11 51
10 25 -11z m-981 -47 l56 -28 -58 -3 c-51 -3 -62 0 -102 29 -25 18 -45 34 -45
37 0 12 100 -11 149 -35z m350 13 c19 -21 20 -24 6 -30 -9 -3 -27 -6 -40 -6
-13 0 -31 3 -40 6 -14 6 -13 9 6 30 12 13 28 24 34 24 6 0 22 -11 34 -24z
m-488 -16 c19 -15 21 -19 7 -20 -27 0 -48 11 -48 26 0 19 14 17 41 -6z m919
15 c0 -3 -21 -19 -47 -35 -37 -24 -58 -30 -100 -30 -88 0 -66 23 52 55 52 14
95 19 95 10z m-595 -36 c15 -6 10 -8 -20 -8 -22 0 -53 6 -70 14 -29 13 -29 13
20 8 28 -3 59 -10 70 -14z m617 -11 c-5 -5 -20 -8 -33 -6 -24 3 -23 4 6 20 30
16 48 7 27 -14z m-267 7 c-35 -16 -56 -18 -82 -7 -13 5 -4 9 32 13 77 9 82 8
50 -6z m-152 -21 c20 -4 37 -10 37 -15 0 -4 -24 -13 -54 -20 -45 -10 -61 -9
-105 6 -28 9 -49 21 -45 26 6 10 110 12 167 3z m-318 -14 c11 -18 -23 -22 -52
-6 l-28 15 37 1 c20 0 40 -5 43 -10z m558 -10 c7 0 6 -4 -3 -10 -19 -12 -60
-13 -60 -1 0 12 21 21 38 15 8 -2 19 -4 25 -4z m-375 -32 c-15 -9 -52 -11 -61
-2 -3 3 -3 12 -1 19 4 10 13 10 40 2 24 -7 30 -13 22 -19z m192 7 c0 -11 -10
-15 -37 -14 l-38 1 30 13 c39 18 45 18 45 0z"/>
<path d="M2165 2948 c-10 -26 0 -983 10 -981 14 4 19 993 5 993 -6 0 -13 -6
-15 -12z"/>
<path d="M2675 2699 c17 -6 42 -23 58 -37 26 -25 27 -25 27 -5 0 29 -19 41
-70 48 -42 5 -43 4 -15 -6z"/>
<path d="M2592 2675 c-64 -54 -45 -122 50 -185 80 -54 98 -76 98 -123 0 -46
-15 -77 -38 -78 -9 0 -12 -3 -5 -5 22 -9 63 28 75 67 17 57 -6 98 -79 145 -91
57 -103 71 -103 120 0 34 5 47 26 63 15 12 22 21 16 21 -6 0 -24 -11 -40 -25z"/>
<path d="M1682 2608 c-7 -7 -12 -21 -12 -33 0 -12 5 -26 12 -33 7 -7 21 -12
33 -12 12 0 26 5 33 12 28 28 7 78 -33 78 -12 0 -26 -5 -33 -12z m48 -33 c0
-8 -7 -15 -15 -15 -8 0 -15 7 -15 15 0 8 7 15 15 15 8 0 15 -7 15 -15z"/>
<path d="M1637 2481 c-9 -43 -53 -89 -93 -97 -20 -4 -34 -12 -34 -20 0 -8 -7
-26 -16 -39 -15 -23 -15 -27 0 -50 19 -29 46 -37 111 -33 77 5 69 27 -12 30
-61 3 -68 5 -71 24 -4 28 15 34 72 22 30 -6 59 -22 83 -44 38 -36 53 -42 53
-21 0 23 -58 69 -109 87 l-49 16 35 28 c19 16 41 43 49 61 12 30 17 33 58 33
42 1 47 -1 62 -34 9 -19 33 -48 53 -64 30 -26 33 -30 14 -30 -25 0 -89 -26
-98 -40 -14 -22 7 -27 42 -9 44 22 118 26 126 5 9 -24 -15 -36 -75 -36 -45 0
-58 -3 -58 -15 0 -12 13 -15 60 -15 51 0 65 4 85 25 29 28 31 47 10 69 -8 8
-15 21 -15 29 0 9 -14 17 -34 21 -40 8 -81 51 -91 96 l-7 30 -73 0 c-72 0 -73
0 -78 -29z"/>
<path d="M1658 2404 c-10 -22 -7 -29 22 -59 l34 -35 28 27 c56 54 46 89 -28
91 -39 0 -47 -3 -56 -24z m72 6 c34 21 41 -22 8 -57 l-22 -23 -23 22 c-13 12
-23 29 -23 39 0 20 20 30 35 18 6 -4 17 -4 25 1z"/>
<path d="M2550 2331 c0 -27 5 -34 35 -47 19 -7 49 -14 67 -13 31 1 31 1 -12
12 -32 9 -51 21 -67 46 l-23 34 0 -32z"/>
<path d="M755 883 c11 -3 26 -10 33 -15 8 -7 12 -7 12 0 0 12 -25 22 -48 21
-13 -1 -12 -3 3 -6z"/>
<path d="M2195 883 c11 -3 26 -10 33 -15 8 -7 12 -7 12 0 0 12 -25 22 -48 21
-13 -1 -12 -3 3 -6z"/>
<path d="M3590 883 c14 -3 33 -12 43 -20 15 -14 17 -14 17 -1 0 16 -31 29 -65
27 -15 -1 -14 -3 5 -6z"/>
<path d="M893 869 c14 -8 17 -25 17 -99 0 -76 -2 -89 -17 -93 -10 -3 5 -5 32
-4 28 0 40 2 28 4 -22 4 -23 9 -23 99 0 93 0 94 24 94 46 0 70 -46 46 -90 -9
-16 -8 -18 5 -14 17 7 29 42 23 70 -5 27 -46 44 -103 44 -39 -1 -46 -3 -32
-11z"/>
<path d="M1171 861 c-7 -13 -9 -21 -3 -18 5 4 14 -5 21 -19 14 -33 15 -32 -11
-37 -20 -4 -19 -4 5 -6 22 -1 31 -10 49 -47 19 -39 20 -46 8 -54 -11 -7 -4
-10 25 -10 29 0 36 3 25 10 -8 5 -35 53 -61 107 -43 94 -46 97 -58 74z"/>
<path d="M1483 866 c14 -14 16 -32 13 -98 -3 -53 -8 -83 -17 -89 -9 -5 7 -9
44 -9 80 0 116 37 87 91 -6 10 -17 19 -25 19 -19 0 -19 8 0 26 36 36 11 66
-61 72 -55 5 -57 4 -41 -12z m87 -11 c17 -21 9 -48 -20 -62 -21 -11 -22 -13
-6 -13 45 0 74 -63 42 -89 -8 -7 -27 -11 -43 -9 -28 3 -28 3 -30 83 -2 44 -1
86 2 93 6 17 40 15 55 -3z"/>
<path d="M1715 775 l0 -105 57 0 c32 0 58 3 58 8 0 4 -19 6 -41 4 -25 -3 -44
0 -49 7 -5 10 -6 124 -1 175 1 4 19 6 41 4 22 -2 40 0 40 4 0 5 -24 8 -53 8
l-53 0 1 -105z"/>
<path d="M1925 775 l0 -105 63 0 c34 0 62 3 62 8 0 4 -22 5 -50 4 l-50 -4 3
94 2 93 34 3 c20 2 37 -2 42 -10 7 -10 9 -9 9 5 0 14 -9 17 -57 17 l-58 0 0
-105z"/>
<path d="M2147 873 c-4 -3 -7 -19 -7 -33 0 -21 12 -37 46 -65 39 -32 45 -42
42 -66 -4 -23 -2 -26 9 -18 28 24 15 58 -38 96 -45 32 -50 39 -45 65 6 29 4
33 -7 21z"/>
<path d="M2321 863 c0 -11 3 -13 6 -5 2 6 20 12 39 12 l34 0 0 -94 c0 -82 -2
-95 -17 -99 -10 -3 2 -5 27 -5 25 0 37 2 28 5 -16 4 -18 17 -18 99 l0 94 28 0
c15 0 33 -5 40 -12 9 -9 12 -8 12 5 0 15 -12 17 -90 17 -79 0 -90 -2 -89 -17z"/>
<path d="M2578 873 c8 -3 12 -33 12 -98 0 -65 -4 -95 -12 -98 -7 -3 5 -5 27
-5 22 0 32 2 23 5 -25 6 -25 178 0 193 13 7 8 9 -23 9 -22 0 -34 -3 -27 -6z"/>
<path d="M2734 865 c21 -21 18 -171 -4 -185 -11 -7 -5 -10 23 -10 33 0 36 2
25 14 -20 20 -18 173 2 186 11 7 4 10 -23 10 -34 0 -37 -2 -23 -15z"/>
<path d="M2885 775 l0 -105 58 0 c31 0 57 3 57 8 0 4 -19 6 -41 4 -24 -3 -44
0 -48 7 -6 9 -7 114 -2 170 1 9 13 12 41 9 22 -2 40 0 40 4 0 5 -24 8 -53 8
l-52 0 0 -105z"/>
<path d="M3070 863 c0 -13 3 -14 12 -5 7 7 25 12 40 12 l28 0 0 -94 c0 -82 -2
-95 -17 -99 -10 -3 2 -5 27 -5 25 0 37 2 27 5 -16 4 -17 15 -15 96 l3 92 37 1
c21 0 41 3 45 7 3 4 -37 7 -90 7 -85 0 -97 -2 -97 -17z"/>
<path d="M3338 873 c8 -3 12 -33 12 -98 0 -81 -2 -94 -17 -98 -10 -3 2 -5 27
-5 25 0 37 2 28 5 -16 4 -18 17 -18 98 0 65 4 95 13 98 6 3 -4 5 -23 5 -19 0
-29 -2 -22 -5z"/>
<path d="M707 863 c-19 -18 -5 -54 31 -80 49 -37 53 -43 49 -75 -3 -22 -1 -25
10 -17 23 20 15 56 -19 83 -62 48 -70 58 -65 77 5 20 4 23 -6 12z"/>
<path d="M3491 844 c-50 -63 -8 -160 74 -170 43 -6 95 9 95 26 0 7 -9 5 -22
-4 -26 -18 -71 -21 -99 -6 -44 24 -64 114 -33 158 21 31 10 28 -15 -4z"/>
<path d="M1136 785 c-9 -26 -7 -32 5 -12 6 10 9 21 6 23 -2 3 -7 -2 -11 -11z"/>
<path d="M1995 781 l-30 -7 33 -5 c22 -4 32 -2 32 8 0 7 -1 12 -2 12 -2 -1
-16 -4 -33 -8z"/>
<path d="M2945 781 l-30 -7 33 -5 c22 -4 32 -2 32 8 0 7 -1 12 -2 12 -2 -1
-16 -4 -33 -8z"/>
<path d="M1750 776 c0 -2 14 -6 30 -8 17 -3 30 -1 30 4 0 4 -13 8 -30 8 -16 0
-30 -2 -30 -4z"/>
<path d="M2653 773 c15 -2 39 -2 55 0 15 2 2 4 -28 4 -30 0 -43 -2 -27 -4z"/>
<path d="M958 753 c7 -3 16 -2 19 1 4 3 -2 6 -13 5 -11 0 -14 -3 -6 -6z"/>
<path d="M690 702 c0 -17 38 -34 63 -29 21 4 21 4 -2 6 -14 0 -33 8 -43 18
-10 9 -18 11 -18 5z"/>
<path d="M1088 688 c-17 -17 -16 -18 20 -17 20 1 29 3 20 6 -9 2 -18 10 -20
16 -2 9 -9 7 -20 -5z"/>
<path d="M2130 697 c0 -18 38 -32 67 -24 13 4 12 5 -6 6 -14 0 -33 8 -43 18
-17 15 -18 15 -18 0z"/>
<path d="M1358 363 c441 -2 1163 -2 1605 0 441 1 80 2 -803 2 -883 0 -1244 -1
-802 -2z"/>
</g>
</svg>
